<?xml version="1.0" encoding="utf-8"?>
<!-- Generator: Adobe Illustrator 16.0.3, SVG Export Plug-In . SVG Version: 6.00 Build 0)  -->
<!DOCTYPE svg PUBLIC "-//W3C//DTD SVG 1.1//EN" "http://www.w3.org/Graphics/SVG/1.1/DTD/svg11.dtd">
<svg version="1.1" id="Layer_1" xmlns="http://www.w3.org/2000/svg" xmlns:xlink="http://www.w3.org/1999/xlink" x="0px" y="0px"
	 width="50px" height="50px" viewBox="0 0 150 150" enable-background="new 0 0 150 150" xml:space="preserve">
<g>
	<path fill="#FF8000" d="M97.519,58H87.5v16h9.785c5.883,0,8.784-2.858,8.784-7.935C106.069,61.375,103.504,58,97.519,58z"/>
	<path fill="#FF8000" d="M74.5,14.247c-33.553,0-60.753,27.2-60.753,60.753s27.2,60.753,60.753,60.753s60.753-27.2,60.753-60.753
		S108.053,14.247,74.5,14.247z M51.065,103.079C40.211,103.079,30.911,98,30.729,87h10c0.311,4,4.509,7.452,10.337,7.452
		c6.141,0,9.56-3.528,9.56-7.285c0-3.703-3.005-6.102-10.855-8.513l-2.797-0.9c-8.626-2.591-14.741-7.46-14.741-15.102
		c0-8.913,8.212-14.677,19.197-14.677C62.466,47.976,70.108,55,70.289,64h-9.741c-0.441-5-3.602-7.395-9.171-7.395
		c-5.44,0-9.172,2.416-9.172,6.12c0,3.601,3.913,5.302,10.026,7.296l2.72,0.851c9.975,3.265,15.571,8.021,15.571,16.233
		C70.522,96.717,62.802,103.079,51.065,103.079z M106.923,102l-9.845-19H87.5v19h-9V48h19.019c12.565,0,18.679,6.822,18.679,16.692
		c0,7.357-3.575,12.462-8.911,15.131L118.271,102H106.923z"/>
</g>
</svg>
